<?xml version="1.0" encoding="UTF-8"?>
<svg xmlns="http://www.w3.org/2000/svg" width="267" height="37" viewBox="0 0 267 37" fill="none">
  <g clip-path="url(#clip0_3345_3468)">
    <path d="M21.5042 10.487C21.2915 14.5294 20.5745 18.4185 18.4491 21.9481C18.3235 22.1609 18.0235 22.3885 18.2873 22.6268C18.3576 22.6885 18.7533 22.4269 18.9661 22.2715C22.1298 19.9695 25.8402 19.2292 29.5868 18.5972C29.774 18.5653 30.0314 18.3547 30.1655 18.627C30.2059 18.71 30.0123 18.9313 29.8932 19.0526C27.4933 21.7013 25.1359 24.3671 21.7978 25.899C21.5595 26.0075 21.1468 26.2522 21.1596 26.3245C21.2702 26.6798 21.6702 26.6564 21.9637 26.6862C24.4701 26.9287 26.6742 28.0606 28.9443 28.9988C29.1409 29.1059 29.3249 29.2343 29.4931 29.3818C29.3027 29.4809 29.1041 29.5634 28.8995 29.6286C26.0061 30.3221 23.1084 30.9731 20.0958 30.4796C19.8426 30.4391 19.4299 30.4093 19.3363 30.5434C19.1235 30.8327 19.549 30.969 19.698 31.1647C20.6655 32.3751 21.5363 33.6598 22.3021 35.007C22.4042 35.1857 22.6659 35.3858 22.4765 35.575C22.3936 35.658 22.068 35.5347 21.8659 35.4644C19.0257 34.4581 16.3938 33.1241 14.6323 30.5711C13.9791 29.6286 13.7451 29.903 13.4238 30.7838C12.8068 32.4858 12.043 34.1369 11.4494 35.8474C11.1728 36.6452 10.7963 36.4856 10.2261 36.2985C9.61121 36.0857 9.49849 35.8048 9.74745 35.2092C10.4622 33.4922 11.1069 31.7454 11.8069 30.0222C12.1303 29.2307 12.1133 28.7839 11.0665 29.0584C7.9709 29.8711 5.10936 29.0179 2.29035 27.8372C2.101 27.7585 1.7691 27.801 1.7691 27.5116C1.7691 27.2223 2.09887 27.2712 2.29461 27.2074C3.80503 26.6886 5.36279 26.3194 6.94543 26.1054C7.14329 26.0819 7.44966 26.2308 7.50497 25.9267C7.55178 25.6692 7.26881 25.5883 7.07946 25.4671C4.51577 23.8288 2.86904 21.3503 1.19467 18.9036C1.07766 18.7334 0.922339 18.4036 0.981909 18.3292C1.14999 18.1462 1.3904 18.3292 1.60529 18.3994C3.99239 19.1823 6.37099 19.9844 8.45386 21.446C8.64747 21.5822 8.83894 21.9396 9.12615 21.6737C9.32189 21.4907 9.09212 21.2481 9.00489 21.0588C7.46029 17.6228 7.67092 13.9613 7.60497 10.336C7.60497 10.1721 7.50497 9.92963 7.72411 9.88707C7.83474 9.86793 8.01771 10.0551 8.11771 10.1871C10.3964 13.1656 12.643 16.1442 13.4217 19.927C13.5193 20.2701 13.6415 20.6057 13.7876 20.9311C13.9492 20.6249 14.0803 20.3035 14.1791 19.9717C15.1152 15.274 18.0087 11.6998 21.0107 8.19353C21.1213 8.06162 21.3 7.85525 21.4085 7.87652C21.717 7.94248 21.5829 8.24034 21.5787 8.44033C21.5724 9.12325 21.5362 9.80405 21.5042 10.487Z" fill="#2B1B28"></path>
    <path d="M21.4315 10.4577C21.2187 14.5 20.5018 18.3892 18.3785 21.9188C18.2508 22.1316 17.9402 22.3592 18.2147 22.5975C18.287 22.6592 18.6806 22.3975 18.8955 22.2422C22.057 19.9402 25.7675 19.1998 29.5141 18.5679C29.7034 18.536 29.9608 18.3233 30.0949 18.5977C30.1354 18.6807 29.9396 18.902 29.8226 19.0232C27.4312 21.6614 25.0633 24.3272 21.7251 25.859C21.4868 25.9697 21.0741 26.2143 21.0974 26.2846C21.206 26.6377 21.6059 26.6165 21.8995 26.6441C24.4058 26.8888 26.6099 28.0206 28.8801 28.9589C29.0769 29.0654 29.2611 29.1939 29.4289 29.3419C29.2387 29.4397 29.0408 29.5221 28.8375 29.5886C25.944 30.2822 23.0464 30.9332 20.0337 30.4397C19.7784 30.3992 19.3657 30.3694 19.2721 30.5035C19.0721 30.7928 19.4848 30.929 19.6338 31.1226C20.6023 32.3331 21.4731 33.6186 22.2379 34.9671C22.34 35.1436 22.6017 35.3457 22.4123 35.5351C22.3294 35.6181 22.0038 35.4947 21.8039 35.4224C18.9635 34.4161 16.3296 33.0821 14.5702 30.529C13.9192 29.5865 13.6851 29.8609 13.3617 30.7524C12.7447 32.4545 11.981 34.1054 11.3895 35.8159C11.1129 36.6138 10.7342 36.4542 10.164 36.2648C9.5492 36.0521 9.43857 35.7734 9.68534 35.1777C10.4002 33.4608 11.0449 31.7141 11.7469 29.9907C12.0703 29.1972 12.0512 28.7525 11.0066 29.0269C7.91095 29.8397 5.04941 28.9844 2.23041 27.8058C2.04105 27.727 1.70915 27.7696 1.70702 27.4803C1.7049 27.1908 2.0368 27.2398 2.23466 27.176C3.74435 26.6571 5.30141 26.2881 6.88335 26.0739C7.08121 26.0505 7.3897 26.1995 7.44502 25.8952C7.49183 25.6357 7.20674 25.5569 7.01951 25.4357C4.43454 23.8039 2.79846 21.3209 1.12408 18.8743C1.00706 18.7041 0.849624 18.3744 0.911323 18.2998C1.08365 18.1168 1.3262 18.2977 1.53895 18.3679C3.92819 19.1488 6.30465 19.9551 8.38965 21.4167C8.58113 21.5529 8.77474 21.9103 9.05983 21.6443C9.25559 21.4614 9.02792 21.2189 8.94069 21.0295C7.39396 17.5935 7.60671 13.932 7.53863 10.3067C7.53863 10.1428 7.43864 9.90027 7.6599 9.8578C7.76841 9.83857 7.95138 10.0258 8.05137 10.1577C10.33 13.1363 12.5767 16.1149 13.3575 19.8976C13.453 20.2405 13.5746 20.5754 13.7213 20.8998C13.8835 20.5943 14.0154 20.2736 14.1149 19.9423C15.0488 15.2425 17.9445 11.6704 20.9443 8.16211C21.0571 8.03232 21.2358 7.82595 21.3421 7.84723C21.6528 7.91318 21.5166 8.21104 21.5145 8.41103C21.4996 9.09397 21.4613 9.77478 21.4315 10.4577Z" fill="#2B1B28"></path>
    <path d="M14.4941 16.1185C15.8344 13.0783 17.9216 10.4571 20.2746 7.69979C20.4873 7.44022 20.9129 6.95939 21.5256 7.08704C21.7043 7.12321 22.5893 7.36363 22.4192 8.50613C22.4183 8.52242 22.4183 8.53876 22.4192 8.55505C22.4192 9.04014 22.3894 9.54647 22.3681 10.0444C22.3681 10.2337 22.3532 10.4209 22.3447 10.6103C22.1447 14.6101 21.4937 17.7525 20.2576 20.4927C22.1724 19.4587 24.217 18.829 26.3403 18.3652C25.6403 13.4718 24.9105 8.59761 24.2786 3.70424C24.1595 2.78515 23.8532 2.56388 23.0021 2.57239C19.6236 2.6043 16.2535 2.61919 12.8878 2.55325C11.7921 2.53622 11.6282 2.94258 11.824 3.88722C12.7204 7.96217 13.6104 12.0392 14.4941 16.1185Z" fill="#2B1B28"></path>
    <path d="M58.5711 2.5691C55.2635 2.60597 51.9544 2.60597 48.644 2.5691C47.7568 2.55633 47.31 2.70951 47.2016 3.72435C46.9738 5.89657 46.5782 8.05178 46.2569 10.2134C45.8165 13.1707 45.3867 16.1322 44.9399 19.0895C44.8791 19.3669 44.7995 19.6398 44.7016 19.9065C44.3697 19.7809 44.4378 19.4533 44.3464 19.2086C44.2585 18.9947 44.1873 18.7741 44.1336 18.5491C43.189 13.7004 42.2188 8.856 41.3359 3.99243C41.1465 2.92865 40.8253 2.50314 39.6934 2.55845C37.5488 2.64569 35.3979 2.58399 33.2512 2.58399C30.3513 2.58399 30.3875 2.58399 29.8471 5.37533C29.0259 9.64102 28.1621 13.8962 27.309 18.1555C27.9883 18.0222 28.672 17.8967 29.36 17.779H29.3855C30.4152 17.3811 30.8492 18.1364 30.9258 18.2916C31.2364 18.93 30.7535 19.4597 30.5195 19.7192L30.3449 19.9129C28.3132 22.1744 26.2218 24.502 23.473 26.1125C25.1069 26.4636 26.6154 27.1061 28.0877 27.7337C28.4876 27.9039 28.8897 28.0741 29.2918 28.2401C29.5101 28.3358 29.7131 28.4634 29.894 28.6188C29.9343 28.6528 29.9769 28.6869 30.0216 28.7188L31.3173 29.6358L29.8578 30.274C29.8067 30.2952 29.7577 30.3208 29.7088 30.3442C29.5236 30.441 29.3281 30.5167 29.1259 30.5697C26.6941 31.1633 23.9793 31.825 21.0986 31.6058C21.8278 32.5872 22.4992 33.6101 23.1092 34.6695L23.1369 34.7036C23.255 34.8537 23.3471 35.0228 23.4091 35.2036H25.3027C26.9282 35.2036 28.5663 35.0759 30.1748 35.2397C31.8385 35.4099 32.313 34.6781 32.5938 33.1993C33.4086 28.9102 34.3724 24.6467 35.3021 20.3788C35.3767 20.0405 35.1596 19.4129 35.7 19.415C36.2404 19.4171 36.0659 20.0299 36.1447 20.4C37.085 24.8402 38.0403 29.2762 38.9466 33.7228C39.1594 34.7737 39.5721 35.2631 40.77 35.2333C44.308 35.1504 47.8526 35.1738 51.3928 35.2227C52.4395 35.2376 52.9247 34.9312 53.1523 33.8504C55.277 23.8311 57.4371 13.8245 59.6327 3.83073C59.8753 2.73292 59.5477 2.5542 58.5711 2.5691Z" fill="#2B1B28"></path>
    <path d="M62.5605 34.5144V3.09473H85.8614V12.0304H74.2557V14.3878H85.27V23.0851H74.2557V25.4978H86.3167V34.5144H62.5605Z" fill="#2B1B28"></path>
    <path d="M89.5029 34.5144V3.09473H112.81V12.0304H101.198V14.3878H112.213V23.0851H101.198V25.4978H113.259V34.5144H89.5029Z" fill="#2B1B28"></path>
    <path d="M128.867 34.5144H116.443V3.09473H128.867C134.328 3.09473 138.243 4.04999 141.381 6.3286C144.477 8.60507 147.07 12.2857 147.07 18.8046C147.064 30.372 139.334 34.5144 128.867 34.5144ZM133.692 14.0686C132.962 13.2941 131.745 12.7027 129.83 12.7027H128.283V24.6808H129.83C133.837 24.6808 135.064 22.5873 135.064 18.8066C135.055 15.9813 134.464 14.7984 133.692 14.0686Z" fill="#2B1B28"></path>
    <path d="M154.033 35.0154C150.3 35.0154 147.796 33.1474 147.796 29.5966C147.796 26.0457 150.3 24.1309 154.033 24.1309C157.672 24.1309 160.221 26.0457 160.221 29.5966C160.221 33.1474 157.672 35.0154 154.033 35.0154Z" fill="#2B1B28"></path>
    <path d="M176.004 34.7726C168.292 34.7726 162.002 30.2026 162.002 21.4357C162.002 12.709 168.254 8.10059 176.004 8.10059C181.657 8.10059 184.465 10.3059 184.465 10.3059L182.032 18.4725C182.032 18.4725 179.756 16.7118 176.678 16.7118C174.095 16.7118 171.885 18.3588 171.885 21.3185C171.885 24.3534 174.021 25.9636 176.678 25.9636C179.149 25.9636 181.207 24.8399 182.443 23.9036L185.102 31.6589C184.346 32.3747 181.769 34.7726 176.004 34.7726Z" fill="#2B1B28"></path>
    <path d="M213.839 21.4019C213.839 23.4824 213.456 25.3334 212.691 26.9549C211.957 28.5765 210.947 29.9533 209.662 31.0853C208.408 32.1868 206.939 33.0282 205.257 33.6095C203.604 34.1908 201.861 34.4814 200.025 34.4814C198.22 34.4814 196.476 34.1908 194.793 33.6095C193.141 33.0282 191.688 32.1868 190.433 31.0853C189.179 29.9533 188.169 28.5765 187.404 26.9549C186.67 25.3334 186.303 23.4824 186.303 21.4019C186.303 19.352 186.67 17.5315 187.404 15.9406C188.169 14.319 189.179 12.9575 190.433 11.8561C191.688 10.7546 193.141 9.92855 194.793 9.37783C196.476 8.79652 198.22 8.50586 200.025 8.50586C201.861 8.50586 203.604 8.79652 205.257 9.37783C206.939 9.92855 208.408 10.7546 209.662 11.8561C210.947 12.9575 211.957 14.319 212.691 15.9406C213.456 17.5315 213.839 19.352 213.839 21.4019ZM200.025 17.4092C198.862 17.4092 197.914 17.8069 197.179 18.6024C196.476 19.3979 196.124 20.331 196.124 21.4019C196.124 22.5339 196.491 23.4977 197.225 24.2931C197.96 25.0886 198.908 25.4864 200.071 25.4864C201.233 25.4864 202.182 25.0886 202.916 24.2931C203.65 23.4977 204.018 22.5339 204.018 21.4019C204.018 20.331 203.635 19.3979 202.87 18.6024C202.136 17.8069 201.187 17.4092 200.025 17.4092Z" fill="#2B1B28"></path>
    <path d="M231.602 33.5636V20.897C231.602 19.6732 231.449 18.7859 231.143 18.2352C230.837 17.6845 230.333 17.4092 229.629 17.4092C229.109 17.4092 228.604 17.6539 228.114 18.1434C227.655 18.633 227.426 19.5049 227.426 20.7594V33.5636H216.825V9.42372H227.151V12.0855H227.242C227.548 11.6878 227.915 11.3053 228.344 10.9382C228.803 10.5405 229.308 10.1886 229.858 9.88266C230.44 9.54611 231.082 9.28604 231.786 9.10247C232.49 8.8883 233.254 8.78122 234.08 8.78122C235.671 8.78122 237.048 9.07188 238.211 9.65319C239.373 10.2039 240.291 11.0759 240.964 12.2691C241.76 11.29 242.739 10.464 243.902 9.79087C245.064 9.11777 246.533 8.78122 248.307 8.78122C250.021 8.78122 251.428 9.11777 252.53 9.79087C253.662 10.464 254.549 11.3053 255.191 12.315C255.864 13.3247 256.323 14.4261 256.568 15.6193C256.844 16.7819 256.981 17.8681 256.981 18.8777V33.5636H246.38V20.7135C246.38 19.3979 246.212 18.5259 245.875 18.0975C245.569 17.6386 245.08 17.4092 244.406 17.4092C243.795 17.4092 243.274 17.6998 242.846 18.2811C242.418 18.8318 242.204 19.6579 242.204 20.7594V33.5636H231.602Z" fill="#2B1B28"></path>
    <path d="M213.839 21.4019C213.839 23.4824 213.456 25.3334 212.691 26.9549C211.957 28.5765 210.947 29.9533 209.662 31.0853C208.408 32.1868 206.939 33.0282 205.257 33.6095C203.604 34.1908 201.861 34.4814 200.025 34.4814C198.22 34.4814 196.476 34.1908 194.793 33.6095C193.141 33.0282 191.688 32.1868 190.433 31.0853C189.179 29.9533 188.169 28.5765 187.404 26.9549C186.67 25.3334 186.303 23.4824 186.303 21.4019C186.303 19.352 186.67 17.5315 187.404 15.9406C188.169 14.319 189.179 12.9575 190.433 11.8561C191.688 10.7546 193.141 9.92855 194.793 9.37783C196.476 8.79652 198.22 8.50586 200.025 8.50586C201.861 8.50586 203.604 8.79652 205.257 9.37783C206.939 9.92855 208.408 10.7546 209.662 11.8561C210.947 12.9575 211.957 14.319 212.691 15.9406C213.456 17.5315 213.839 19.352 213.839 21.4019ZM200.025 17.4092C198.862 17.4092 197.914 17.8069 197.179 18.6024C196.476 19.3979 196.124 20.331 196.124 21.4019C196.124 22.5339 196.491 23.4977 197.225 24.2931C197.96 25.0886 198.908 25.4864 200.071 25.4864C201.233 25.4864 202.182 25.0886 202.916 24.2931C203.65 23.4977 204.018 22.5339 204.018 21.4019C204.018 20.331 203.635 19.3979 202.87 18.6024C202.136 17.8069 201.187 17.4092 200.025 17.4092Z" stroke="#2B1B28" stroke-width="0.526791"></path>
    <path d="M231.602 33.5636V20.897C231.602 19.6732 231.449 18.7859 231.143 18.2352C230.837 17.6845 230.333 17.4092 229.629 17.4092C229.109 17.4092 228.604 17.6539 228.114 18.1434C227.655 18.633 227.426 19.5049 227.426 20.7594V33.5636H216.825V9.42372H227.151V12.0855H227.242C227.548 11.6878 227.915 11.3053 228.344 10.9382C228.803 10.5405 229.308 10.1886 229.858 9.88266C230.44 9.54611 231.082 9.28604 231.786 9.10247C232.49 8.8883 233.254 8.78122 234.08 8.78122C235.671 8.78122 237.048 9.07188 238.211 9.65319C239.373 10.2039 240.291 11.0759 240.964 12.2691C241.76 11.29 242.739 10.464 243.902 9.79087C245.064 9.11777 246.533 8.78122 248.307 8.78122C250.021 8.78122 251.428 9.11777 252.53 9.79087C253.662 10.464 254.549 11.3053 255.191 12.315C255.864 13.3247 256.323 14.4261 256.568 15.6193C256.844 16.7819 256.981 17.8681 256.981 18.8777V33.5636H246.38V20.7135C246.38 19.3979 246.212 18.5259 245.875 18.0975C245.569 17.6386 245.08 17.4092 244.406 17.4092C243.795 17.4092 243.274 17.6998 242.846 18.2811C242.418 18.8318 242.204 19.6579 242.204 20.7594V33.5636H231.602Z" stroke="#2B1B28" stroke-width="0.526791"></path>
  </g>
  <defs>
    <clipPath id="clip0_3345_3468">
      <rect width="267" height="36.4505" fill="white"></rect>
    </clipPath>
  </defs>
</svg>
